<svg xmlns="http://www.w3.org/2000/svg" viewBox="0 0 64 64">
  <rect width="64" height="64" rx="16" fill="#173b47"/>
  <circle cx="44" cy="18" r="8" fill="#f2c94c"/>
  <g stroke="#f2c94c" stroke-width="3" stroke-linecap="round">
    <path d="M44 4v4"/>
    <path d="M44 28v4"/>
    <path d="M30 18h4"/>
    <path d="M54 18h4"/>
    <path d="M34 8l3 3"/>
    <path d="M51 25l3 3"/>
    <path d="M54 8l-3 3"/>
    <path d="M37 25l-3 3"/>
  </g>
  <path d="M13 34h31l8 18H7l6-18Z" fill="#eef5ef"/>
  <path d="M16 38h8l-2 10H12l4-10Z" fill="#1f4d3a"/>
  <path d="M27 38h8l1 10H25l2-10Z" fill="#1f4d3a"/>
  <path d="M38 38h6l5 10H39l-1-10Z" fill="#1f4d3a"/>
</svg>
