<svg width="1200" height="900" viewBox="0 0 1200 900" fill="none" xmlns="http://www.w3.org/2000/svg">
  <rect width="1200" height="900" fill="url(#bg)"/>
  <circle cx="925" cy="180" r="78" fill="#F5CB59"/>
  <path d="M0 620C130 560 250 540 380 560C520 585 650 670 825 665C960 661 1060 612 1200 585V900H0V620Z" fill="#6FA36D"/>
  <path d="M0 700C150 640 290 635 420 665C580 703 740 780 900 765C1030 753 1120 710 1200 688V900H0V700Z" fill="#3E6947"/>
  <path d="M180 655L145 900H245L280 655H180Z" fill="#6A4A2E"/>
  <circle cx="230" cy="565" r="105" fill="#4E8B58"/>
  <circle cx="160" cy="605" r="78" fill="#4A7C52"/>
  <circle cx="295" cy="618" r="70" fill="#5A9A64"/>
  <path d="M690 640L640 900H760L810 640H690Z" fill="#6A4A2E"/>
  <circle cx="745" cy="548" r="120" fill="#5A9964"/>
  <circle cx="655" cy="595" r="82" fill="#4A7C52"/>
  <circle cx="838" cy="603" r="78" fill="#6FA36D"/>
  <defs>
    <linearGradient id="bg" x1="600" y1="0" x2="600" y2="900" gradientUnits="userSpaceOnUse">
      <stop stop-color="#DFF4FA"/>
      <stop offset="0.45" stop-color="#CFE7DE"/>
      <stop offset="1" stop-color="#EEF0DF"/>
    </linearGradient>
  </defs>
</svg>
