<svg width="1200" height="900" viewBox="0 0 1200 900" fill="none" xmlns="http://www.w3.org/2000/svg">
  <rect width="1200" height="900" fill="url(#bg)"/>
  <path d="M0 700C160 640 280 628 450 648C600 666 735 722 910 710C1030 702 1135 676 1200 655V900H0V700Z" fill="#708E62"/>
  <rect x="365" y="210" width="470" height="470" rx="48" fill="#EEF4EF"/>
  <rect x="420" y="310" width="360" height="230" rx="32" fill="#D7E7D5"/>
  <rect x="510" y="170" width="180" height="52" rx="18" fill="#C7D8C6"/>
  <path d="M600 352V492" stroke="#2B6B44" stroke-width="34" stroke-linecap="round"/>
  <path d="M532 422H668" stroke="#2B6B44" stroke-width="34" stroke-linecap="round"/>
  <rect x="450" y="563" width="300" height="24" rx="12" fill="#B2C8B0"/>
  <circle cx="936" cy="180" r="70" fill="#F4C84A"/>
  <rect x="130" y="285" width="150" height="210" rx="26" fill="#F7F3EA"/>
  <path d="M155 420L205 360L235 390L268 340" stroke="#0C5F79" stroke-width="18" stroke-linecap="round" stroke-linejoin="round"/>
  <circle cx="155" cy="420" r="12" fill="#0C5F79"/>
  <circle cx="205" cy="360" r="12" fill="#0C5F79"/>
  <circle cx="235" cy="390" r="12" fill="#0C5F79"/>
  <circle cx="268" cy="340" r="12" fill="#0C5F79"/>
  <defs>
    <linearGradient id="bg" x1="600" y1="0" x2="600" y2="900" gradientUnits="userSpaceOnUse">
      <stop stop-color="#E1F0F2"/>
      <stop offset="0.5" stop-color="#DCEADB"/>
      <stop offset="1" stop-color="#EEF0E1"/>
    </linearGradient>
  </defs>
</svg>
