<svg width="1600" height="1200" viewBox="0 0 1600 1200" fill="none" xmlns="http://www.w3.org/2000/svg">
  <rect width="1600" height="1200" fill="url(#bg)"/>
  <circle cx="1310" cy="180" r="95" fill="#F4C84A" fill-opacity="0.95"/>
  <path d="M0 790C130 730 250 700 380 720C510 740 610 820 760 820C900 820 1010 740 1170 730C1320 720 1440 760 1600 840V1200H0V790Z" fill="url(#hill1)"/>
  <path d="M0 860C170 790 310 770 450 800C620 840 760 940 970 920C1150 900 1290 830 1600 870V1200H0V860Z" fill="url(#hill2)"/>
  <path d="M1030 660L1290 560L1480 700L1220 800L1030 660Z" fill="#253A43"/>
  <path d="M1090 642L1285 565L1415 660L1215 740L1090 642Z" fill="#1F2F37"/>
  <path d="M1095 646L1132 631L1252 706L1216 721L1095 646Z" fill="#0E5E78"/>
  <path d="M1138 629L1176 614L1296 689L1259 704L1138 629Z" fill="#0E5E78"/>
  <path d="M1182 611L1220 596L1340 671L1302 686L1182 611Z" fill="#0E5E78"/>
  <path d="M1227 594L1264 579L1384 654L1347 669L1227 594Z" fill="#0E5E78"/>
  <path d="M1038 661L1074 646L1195 721L1158 736L1038 661Z" fill="#0B4A5F"/>
  <path d="M1082 644L1120 629L1240 704L1202 719L1082 644Z" fill="#0B4A5F"/>
  <path d="M1126 626L1163 611L1284 686L1246 701L1126 626Z" fill="#0B4A5F"/>
  <path d="M1170 609L1208 594L1328 669L1291 684L1170 609Z" fill="#0B4A5F"/>
  <rect x="240" y="470" width="440" height="320" rx="26" fill="#F7F3EA"/>
  <rect x="275" y="575" width="370" height="215" rx="16" fill="#EFE8D9"/>
  <path d="M215 530L460 360L720 530H215Z" fill="#2C3E46"/>
  <rect x="340" y="615" width="88" height="175" rx="10" fill="#B8864B"/>
  <rect x="468" y="610" width="112" height="88" rx="10" fill="#E5F0F5"/>
  <rect x="487" y="628" width="32" height="52" fill="#C9E0EA"/>
  <rect x="527" y="628" width="32" height="52" fill="#C9E0EA"/>
  <path d="M435 431L630 431L703 515H508L435 431Z" fill="#1E2A31"/>
  <path d="M446 439L616 439L674 506H503L446 439Z" fill="#0C5D77"/>
  <path d="M465 448L500 448L555 495H520L465 448Z" fill="#1380A1"/>
  <path d="M508 448L544 448L598 495H563L508 448Z" fill="#1380A1"/>
  <path d="M552 448L587 448L642 495H606L552 448Z" fill="#1380A1"/>
  <rect x="770" y="520" width="168" height="278" rx="26" fill="#EEF4EF"/>
  <rect x="804" y="566" width="100" height="150" rx="18" fill="#D8E8D6"/>
  <path d="M856 600V678" stroke="#2B6B44" stroke-width="18" stroke-linecap="round"/>
  <path d="M818 640H894" stroke="#2B6B44" stroke-width="18" stroke-linecap="round"/>
  <rect x="820" y="735" width="68" height="18" rx="9" fill="#B6CDB4"/>
  <rect x="945" y="210" width="420" height="210" rx="28" fill="white" fill-opacity="0.13" stroke="white" stroke-opacity="0.22"/>
  <text x="985" y="280" fill="white" font-size="34" font-family="Arial, sans-serif" font-weight="700">Energia pulita per la tua casa</text>
  <text x="985" y="330" fill="white" fill-opacity="0.85" font-size="22" font-family="Arial, sans-serif">Fotovoltaico, accumulo e sostenibilità</text>
  <defs>
    <linearGradient id="bg" x1="800" y1="0" x2="800" y2="1200" gradientUnits="userSpaceOnUse">
      <stop stop-color="#083A36"/>
      <stop offset="0.48" stop-color="#0E5A49"/>
      <stop offset="1" stop-color="#E7E1D3"/>
    </linearGradient>
    <linearGradient id="hill1" x1="800" y1="720" x2="800" y2="1200" gradientUnits="userSpaceOnUse">
      <stop stop-color="#447952"/>
      <stop offset="1" stop-color="#294C33"/>
    </linearGradient>
    <linearGradient id="hill2" x1="800" y1="790" x2="800" y2="1200" gradientUnits="userSpaceOnUse">
      <stop stop-color="#88A06A"/>
      <stop offset="1" stop-color="#51643D"/>
    </linearGradient>
  </defs>
</svg>
